
     The.Extra.Man.2010.720p.BRRiP.x264.AC-3.mkv-Zen_Bud

Format                           : Matroska
Format version                   : Version 2
File size                        : 1.85 GiB
Duration                         : 1h 48mn
Overall bit rate                 : 2 446 Kbps
Writing application              : mkvmerge v4.9.1 ('Ich will') 
Writing library                  : libebml v1.2.1 + libmatroska v1.1.1

Video
ID                               : 1
Format                           : AVC
Format/Info                      : Advanced Video Codec
Format profile                   : High@L4.1
Format settings, CABAC           : Yes
Format settings, ReFrames        : 4 frames
Muxing mode                      : Header stripping
Codec ID                         : V_MPEG4
Duration                         : 1h 48mn
Bit rate                         : 1 814 Kbps
Width                            : 1 280 pixels
Height                           : 544 pixels
Display aspect ratio             : 2.35:1
Frame rate                       : 23.976 fps
Color space                      : YUV
Chroma subsampling               : 4:2:0
Bit depth                        : 8 bits
Scan type                        : Progressive
Bits/(Pixel*Frame)               : 0.109
Stream size                      : 1.33 GiB (72%)
Writing library                  : x264 core 116 r2074 2641b9e
Encoding settings                : cabac=1 / ref=3 / deblock=1:0:0 / analyse=0x3:0x113 

Audio

Format                           : AC-3
Mode extension                   : CM (complete main)
Muxing mode                      : Header stripping
Duration                         : 1h 48mn
Bit rate mode                    : Constant
Bit rate                         : 640 Kbps
Channel(s)                       : 6 channels
Channel positions                : Front: L C R, Side: L R, LFE
Sampling rate                    : 48.0 KHz
Bit depth                        : 16 bits
Compression mode                 : Lossy
Stream size                      : 495 MiB (26%)
Language                         : English

Text #1

Format                           : UTF-8
Codec ID                         : S_TEXT/UTF8
Codec ID/Info                    : UTF-8 Plain Text
Language                         : English

Text #2

Format                           : UTF-8
Codec ID                         : S_TEXT/UTF8
Codec ID/Info                    : UTF-8 Plain Text
Language                         : Swedish

=====================================================================================

A man who escorts wealthy widows in New York's Upper East Side takes a young 
aspiring playwright under his wing.

=====================================================================================
 
http://www.phyrefile.com/image/view/Bqe8AWyTrfMLwDIG 
http://www.phyrefile.com/image/view/X25IHLWXPseuA2sn 
http://www.phyrefile.com/image/view/BR2B7030TbkTKcCh 
http://www.phyrefile.com/image/view/rc0rVGvKBvSeGBex 
http://www.phyrefile.com/image/view/RXwz8CKBfr442TaB 
http://www.phyrefile.com/image/view/zs4BXx4biJj4T5dq 
http://www.phyrefile.com/image/view/MgpJp1R2Xk9yCs1e 
http://www.phyrefile.com/image/view/PaR6Mxleuf6MNzcZ 
http://www.phyrefile.com/image/view/BlfleWqFsVd13BpD 
http://www.phyrefile.com/image/view/VwvPrBtR4WDwrRNz 
http://www.phyrefile.com/image/view/LRYGg7R8ZItSuLMN
